<svg width="30" height="30" viewBox="0 0 30 30" fill="none" xmlns="http://www.w3.org/2000/svg">
<g clip-path="url(#clip0_109_16)">
<path d="M16.0154 0.0308075C23.6271 0.0308075 29.8548 6.25852 29.8548 13.8702V16.0324C29.8548 23.6441 23.627 29.8718 16.0154 29.8718H13.8532C6.2415 29.8718 0.0137939 23.6441 0.0137939 16.0324V13.8702C0.0137939 6.25852 6.2415 0.0308075 13.8532 0.0308075H16.0154ZM15.2063 7.53105L15.0138 7.53081C13.4104 7.53081 11.8071 7.5838 11.8071 7.5838C9.46525 7.5838 7.56679 9.48226 7.56679 11.8241C7.56679 11.8241 7.51812 13.2009 7.51406 14.6786L7.51379 14.8718C7.51379 16.5264 7.56679 18.2375 7.56679 18.2375C7.56679 20.5794 9.46525 22.4778 11.8071 22.4778C11.8071 22.4778 13.3062 22.5308 14.8548 22.5308C16.5094 22.5308 18.2735 22.4778 18.2735 22.4778C20.6154 22.4778 22.4608 20.6324 22.4608 18.2905C22.4608 18.2905 22.5138 16.5986 22.5138 14.9778L22.5128 14.5975C22.5056 13.1432 22.4608 11.7711 22.4608 11.7711C22.4608 9.42923 20.6153 7.5838 18.2735 7.5838C18.2735 7.5838 16.747 7.53496 15.2063 7.53105ZM15.0138 8.88077C16.3286 8.88077 18.0143 8.92425 18.0143 8.92425C19.9347 8.92425 21.1203 10.1099 21.1203 12.0302C21.1203 12.0302 21.1638 13.6872 21.1638 14.9873C21.1638 16.3164 21.1203 18.0313 21.1203 18.0313C21.1203 19.9516 19.9347 21.1373 18.0143 21.1373C18.0143 21.1373 16.5235 21.1738 15.23 21.1799L14.8834 21.1807C13.6135 21.1807 12.0663 21.1373 12.0663 21.1373C10.146 21.1373 8.90727 19.8985 8.90727 17.9783C8.90727 17.9783 8.86379 16.2571 8.86379 14.9004C8.86379 13.6305 8.90727 12.0302 8.90727 12.0302C8.90727 10.1099 10.146 8.92425 12.0663 8.92425C12.0663 8.92425 13.699 8.88077 15.0138 8.88077ZM15.0138 11.1888C12.8919 11.1888 11.1718 12.9089 11.1718 15.0308C11.1718 17.1526 12.8919 18.8727 15.0138 18.8727C17.1356 18.8727 18.8557 17.1526 18.8557 15.0308C18.8557 12.9089 17.1356 11.1888 15.0138 11.1888ZM15.0138 12.5308C16.3945 12.5308 17.5138 13.65 17.5138 15.0308C17.5138 16.4115 16.3945 17.5308 15.0138 17.5308C13.6331 17.5308 12.5137 16.4115 12.5137 15.0308C12.5137 13.65 13.633 12.5308 15.0138 12.5308ZM19.0395 10.1227C18.5268 10.1227 18.1112 10.5404 18.1112 11.0556C18.1112 11.5708 18.5268 11.9885 19.0395 11.9885C19.5522 11.9885 19.9678 11.5708 19.9678 11.0556C19.9678 10.5403 19.5522 10.1227 19.0395 10.1227Z" fill="#D2F2F9"/>
</g>
<defs>
<clipPath id="clip0_109_16">
<rect width="30" height="30" fill="white"/>
</clipPath>
</defs>
</svg>
