<svg width="30" height="20" viewBox="0 0 30 20" fill="none" xmlns="http://www.w3.org/2000/svg">
<g clip-path="url(#clip0_107_14)">
<path fill-rule="evenodd" clip-rule="evenodd" d="M1.75736 1.46446C1.78814e-07 2.92894 0 5.28595 0 10C0 14.714 1.78814e-07 17.0711 1.75736 18.5355C3.51472 20 6.34314 20 12 20H18C23.6568 20 26.4853 20 28.2426 18.5355C30 17.0711 30 14.714 30 10C30 5.28595 30 2.92894 28.2426 1.46446C26.4853 -1.49012e-07 23.6568 0 18 0H12C6.34314 0 3.51472 -1.49012e-07 1.75736 1.46446ZM24.8643 4.39982C25.262 4.79759 25.1975 5.38874 24.7201 5.72021L21.4256 8.00825C20.096 8.9315 19.0184 9.67988 18.0672 10.1896C17.0765 10.7206 16.1117 11.0561 15 11.0561C13.8883 11.0561 12.9236 10.7206 11.9328 10.1896C10.9817 9.67988 9.90407 8.9315 8.57454 8.00825L5.27979 5.72021C4.80247 5.38874 4.73799 4.79759 5.13575 4.39982C5.53351 4.00206 6.2429 3.94832 6.72021 4.27979L9.95855 6.52864C11.358 7.5005 12.3295 8.173 13.1499 8.61262C13.9438 9.03825 14.4824 9.18113 15 9.18113C15.5176 9.18113 16.0562 9.03825 16.8501 8.61262C17.6705 8.173 18.642 7.5005 20.0415 6.52864L23.2799 4.27979C23.7571 3.94832 24.4665 4.00206 24.8643 4.39982Z" fill="#D2F2F9"/>
</g>
<defs>
<clipPath id="clip0_107_14">
<rect width="30" height="20" fill="white"/>
</clipPath>
</defs>
</svg>
