<svg width="50" height="50" viewBox="0 0 50 50" fill="none" xmlns="http://www.w3.org/2000/svg">
<g clip-path="url(#clip0_109_16)">
<path d="M26.6924 0.0513458C39.3784 0.0513458 49.7579 10.4309 49.7579 23.1169V26.7207C49.7579 39.4068 39.3784 49.7863 26.6924 49.7863H23.0885C10.4025 49.7863 0.0229492 39.4068 0.0229492 26.7207V23.1169C0.0229492 10.4309 10.4025 0.0513458 23.0885 0.0513458H26.6924ZM25.3439 12.5518L25.0229 12.5513C22.3507 12.5513 19.6785 12.6397 19.6785 12.6397C15.7754 12.6397 12.6113 15.8038 12.6113 19.7068C12.6113 19.7068 12.5302 22.0014 12.5234 24.4643L12.5229 24.7863C12.5229 27.5439 12.6113 30.3959 12.6113 30.3959C12.6113 34.2989 15.7754 37.463 19.6785 37.463C19.6785 37.463 22.1769 37.5513 24.758 37.5513C27.5156 37.5513 30.4558 37.463 30.4558 37.463C34.3589 37.463 37.4346 34.3873 37.4346 30.4842C37.4346 30.4842 37.5229 27.6644 37.5229 24.963L37.5213 24.3291C37.5094 21.9054 37.4346 19.6185 37.4346 19.6185C37.4346 15.7154 34.3589 12.6397 30.4558 12.6397C30.4558 12.6397 27.9116 12.5583 25.3439 12.5518ZM25.0229 14.8013C27.2142 14.8013 30.0238 14.8738 30.0238 14.8738C33.2244 14.8738 35.2005 16.8498 35.2005 20.0504C35.2005 20.0504 35.2729 22.812 35.2729 24.9788C35.2729 27.1939 35.2005 30.0521 35.2005 30.0521C35.2005 33.2527 33.2244 35.2288 30.0238 35.2288C30.0238 35.2288 27.5392 35.2897 25.3833 35.2998L24.8057 35.3012C22.6892 35.3012 20.1104 35.2288 20.1104 35.2288C16.9099 35.2288 14.8454 33.1642 14.8454 29.9638C14.8454 29.9638 14.773 27.0952 14.773 24.834C14.773 22.7175 14.8454 20.0504 14.8454 20.0504C14.8454 16.8498 16.91 14.8738 20.1104 14.8738C20.1104 14.8738 22.8316 14.8013 25.0229 14.8013ZM25.0229 18.6481C21.4865 18.6481 18.6197 21.5149 18.6197 25.0513C18.6197 28.5876 21.4865 31.4544 25.0229 31.4544C28.5593 31.4544 31.4261 28.5876 31.4261 25.0513C31.4261 21.5149 28.5593 18.6481 25.0229 18.6481ZM25.0229 20.8846C27.3241 20.8846 29.1896 22.7501 29.1896 25.0513C29.1896 27.3525 27.3241 29.2179 25.0229 29.2179C22.7217 29.2179 20.8562 27.3525 20.8562 25.0513C20.8562 22.7501 22.7217 20.8846 25.0229 20.8846ZM31.7325 16.8712C30.878 16.8712 30.1853 17.5673 30.1853 18.426C30.1853 19.2847 30.878 19.9808 31.7325 19.9808C32.5869 19.9808 33.2796 19.2847 33.2796 18.426C33.2796 17.5672 32.5869 16.8712 31.7325 16.8712Z" fill="#D2F2F9"/>
</g>
<defs>
<clipPath id="clip0_109_16">
<rect width="50" height="50" fill="white"/>
</clipPath>
</defs>
</svg>
