<svg width="30" height="30" viewBox="0 0 30 30" fill="none" xmlns="http://www.w3.org/2000/svg">
<g clip-path="url(#clip0_104_4)">
<path d="M20.927 19.2463L20.1678 20.0453C20.1678 20.0453 18.3635 21.9451 13.4385 16.7598C8.51352 11.5747 10.3178 9.67515 10.3178 9.67515L10.7958 9.17187C11.9735 7.93209 12.0845 5.94162 11.057 4.4885L8.95542 1.51602C7.68379 -0.282501 5.22659 -0.520084 3.76908 1.0144L1.15308 3.76857C0.43038 4.52944 -0.0539196 5.51576 0.00481366 6.60991C0.155064 9.40911 1.35118 15.4319 8.02559 22.4588C15.1035 29.9104 21.7446 30.2065 24.4605 29.9385C25.3195 29.8538 26.0665 29.3905 26.6685 28.7567L29.0361 26.2642C30.6343 24.5815 30.1836 21.6969 28.1388 20.5201L24.9546 18.6872C23.612 17.9145 21.9763 18.1414 20.927 19.2463Z" fill="#D2F2F9"/>
</g>
<defs>
<clipPath id="clip0_104_4">
<rect width="30" height="30" fill="white"/>
</clipPath>
</defs>
</svg>
